<svg width="62" height="29" viewBox="0 0 62 29" fill="none" xmlns="http://www.w3.org/2000/svg">
<g id="cirlces">
<circle id="Ellipse 5" cx="59.7778" cy="2.22222" r="2.22222" transform="rotate(90 59.7778 2.22222)" fill="#FF9F59"/>
<circle id="Ellipse 9" cx="59.7778" cy="14.074" r="2.22222" transform="rotate(90 59.7778 14.074)" fill="#FF9F59"/>
<circle id="Ellipse 13" cx="59.7778" cy="25.926" r="2.22222" transform="rotate(90 59.7778 25.926)" fill="#FF9F59"/>
<circle id="Ellipse 6" cx="47.9259" cy="2.22222" r="2.22222" transform="rotate(90 47.9259 2.22222)" fill="#FF9F59"/>
<circle id="Ellipse 10" cx="47.9259" cy="14.074" r="2.22222" transform="rotate(90 47.9259 14.074)" fill="#FF9F59"/>
<circle id="Ellipse 14" cx="47.9259" cy="25.926" r="2.22222" transform="rotate(90 47.9259 25.926)" fill="#FF9F59"/>
<circle id="Ellipse 7" cx="36.0741" cy="2.22222" r="2.22222" transform="rotate(90 36.0741 2.22222)" fill="#FF9F59"/>
<circle id="Ellipse 11" cx="36.0741" cy="14.074" r="2.22222" transform="rotate(90 36.0741 14.074)" fill="#FF9F59"/>
<circle id="Ellipse 15" cx="36.0741" cy="25.926" r="2.22222" transform="rotate(90 36.0741 25.926)" fill="#FF9F59"/>
<circle id="Ellipse 8" cx="24.2222" cy="2.22222" r="2.22222" transform="rotate(90 24.2222 2.22222)" fill="#FF9F59"/>
<circle id="Ellipse 17" cx="13.2222" cy="2.22222" r="2.22222" transform="rotate(90 13.2222 2.22222)" fill="#FF9F59"/>
<circle id="Ellipse 20" cx="2.22224" cy="2.22222" r="2.22222" transform="rotate(90 2.22224 2.22222)" fill="#FF9F59"/>
<circle id="Ellipse 12" cx="24.2222" cy="14.074" r="2.22222" transform="rotate(90 24.2222 14.074)" fill="#FF9F59"/>
<circle id="Ellipse 18" cx="13.2222" cy="14.074" r="2.22222" transform="rotate(90 13.2222 14.074)" fill="#FF9F59"/>
<circle id="Ellipse 21" cx="2.22224" cy="14.074" r="2.22222" transform="rotate(90 2.22224 14.074)" fill="#FF9F59"/>
<circle id="Ellipse 16" cx="24.2222" cy="25.926" r="2.22222" transform="rotate(90 24.2222 25.926)" fill="#FF9F59"/>
<circle id="Ellipse 19" cx="13.2222" cy="25.926" r="2.22222" transform="rotate(90 13.2222 25.926)" fill="#FF9F59"/>
<circle id="Ellipse 22" cx="2.22224" cy="25.926" r="2.22222" transform="rotate(90 2.22224 25.926)" fill="#FF9F59"/>
</g>
</svg>
